<svg width="234" height="30" viewBox="0 0 234 30" fill="none" xmlns="http://www.w3.org/2000/svg">
<g clip-path="url(#clip0_1288_7371)">
<path d="M24.472 29.9832C27.5717 30.0752 30.6798 29.7157 33.5121 28.8294C36.5283 27.8511 39.3607 26.2541 41.934 23.9464C44.3236 21.9063 46.2786 19.5066 47.7826 16.5802L44.9502 15.4264C43.5298 18.0016 41.8505 20.0418 39.8035 21.8143C37.5894 23.7625 35.1915 25.2759 32.6265 26.0702C30.2286 26.8729 27.5717 27.1321 24.8229 26.9565C22.3414 26.9565 19.9435 26.4214 17.4621 25.2759C15.248 24.2976 13.1174 22.8846 11.1707 21.1036C9.22398 19.3311 7.71171 17.2909 6.65062 14.9832L10.4605 13.6538L3.10808 9.31433L0 16.9481L3.90181 15.7943C4.78745 18.102 6.47517 20.5852 8.86471 23.1605C10.636 24.8494 13.0339 26.4464 15.9582 27.9515C18.8824 29.1053 21.7231 29.816 24.472 29.9916" fill="#FF7F00"/>
<path d="M34.5732 1.77258C33.9549 0.618729 33.3367 0 32.451 0C31.7408 0 31.0307 0.618729 30.5043 1.77258C29.886 2.83445 29.6187 4.25585 29.6187 5.85284C29.6187 7.54181 29.886 8.87124 30.5043 10.0251C31.039 11.1789 31.7492 11.714 32.451 11.714C33.3367 11.714 33.9549 11.1789 34.5732 10.0251C35.1079 8.87124 35.3753 7.54181 35.3753 5.85284C35.3753 4.25585 35.1079 2.83445 34.5732 1.77258Z" fill="#FF7F00"/>
<path d="M21.8067 6.4799C21.8067 4.70732 21.5393 3.28592 21.0046 2.13207C20.4699 0.886253 19.7681 0.359497 18.966 0.359497C18.1639 0.359497 17.5456 0.894614 17.0192 2.13207C16.401 3.28592 16.1336 4.70732 16.1336 6.4799C16.1336 8.07689 16.401 9.49829 17.0192 10.7358C17.554 11.8896 18.1722 12.5083 18.966 12.5083C19.7597 12.5083 20.4699 11.8896 21.0046 10.7358C21.5393 9.49829 21.8067 8.07689 21.8067 6.4799Z" fill="#FF7F00"/>
<path d="M72.5302 20.2759C72.4049 20.4347 72.2545 20.4933 72.0958 20.4431C71.937 20.3929 71.7449 20.2926 71.536 20.1505C71.2603 19.9582 70.9428 19.699 70.5752 19.3729C70.2159 19.0468 69.8316 18.6873 69.4389 18.2943C69.0462 17.9013 68.6535 17.4749 68.2608 17.0317C67.8765 16.5886 67.5256 16.1538 67.2164 15.7357C66.3893 16.7725 65.4702 17.7508 64.4509 18.6789C63.4316 19.607 62.3454 20.4431 61.1841 21.1873C61.042 21.2876 60.9251 21.3294 60.8332 21.3127C60.7413 21.2959 60.6326 21.204 60.5073 21.0451L59.371 19.515C59.2457 19.3394 59.1956 19.1973 59.2373 19.0886C59.2791 18.9883 59.371 18.8796 59.5131 18.7876C60.4488 18.1438 61.3428 17.4247 62.1783 16.6304C63.0138 15.8361 63.7909 15.0083 64.4927 14.1304C65.1945 13.2608 65.8128 12.3578 66.3475 11.4381C66.8822 10.5184 67.2916 9.59862 67.584 8.67889C67.6843 8.3528 67.559 8.19394 67.2164 8.19394H61.3261C61.1005 8.19394 60.9668 8.15214 60.9251 8.06016C60.8833 7.96819 60.8666 7.85113 60.8666 7.68391V5.93642C60.8666 5.74411 60.9 5.61033 60.9752 5.53508C61.0504 5.45983 61.1757 5.42638 61.3512 5.42638H69.347C69.9736 5.42638 70.4749 5.56016 70.8342 5.83608C71.1934 6.112 71.3772 6.51334 71.3772 7.04846C71.3772 7.27421 71.3605 7.4916 71.3188 7.70063C71.277 7.90966 71.2352 8.11033 71.1851 8.311C70.9929 9.10531 70.7088 9.90799 70.3329 10.7357C69.9652 11.5635 69.5141 12.3913 68.996 13.2357C69.3052 13.7207 69.6561 14.1889 70.0488 14.6404C70.4415 15.0919 70.8509 15.5267 71.2686 15.9364C71.6864 16.3461 72.1041 16.7307 72.5302 17.0735C72.948 17.4247 73.3323 17.7341 73.6665 18.01C73.9422 18.219 73.9339 18.4949 73.6415 18.8378L72.5052 20.2675L72.5302 20.2759ZM78.0863 26.898H75.6634C75.4879 26.898 75.3626 26.8729 75.2958 26.8143C75.2289 26.7558 75.1955 26.6304 75.1955 26.4381V4.09695C75.1955 3.92137 75.2289 3.79595 75.2958 3.73742C75.3626 3.67053 75.4796 3.63708 75.6634 3.63708H78.0863C78.2618 3.63708 78.3871 3.67053 78.454 3.73742C78.5208 3.80431 78.5459 3.92137 78.5459 4.09695V26.4297C78.5459 26.622 78.5125 26.7475 78.454 26.806C78.3871 26.8645 78.2702 26.8896 78.0863 26.8896" fill="#FF7F00"/>
<path d="M95.022 16.9481C94.2951 17.0903 93.5014 17.2157 92.6492 17.3244C91.797 17.4331 90.9113 17.5167 89.9923 17.5919C89.0816 17.6672 88.1625 17.7174 87.2518 17.7341C86.3411 17.7592 85.4638 17.7508 84.62 17.7257C84.2691 17.709 83.9766 17.6672 83.751 17.6003C83.5255 17.5334 83.3416 17.4414 83.208 17.3077C83.0659 17.1822 82.9824 17.0066 82.9323 16.7976C82.8821 16.5886 82.8571 16.3294 82.8571 16.02V11.2625C82.8571 10.7441 82.9657 10.3929 83.1746 10.209C83.3834 10.025 83.751 9.93307 84.2691 9.93307H89.5244C89.6664 9.93307 89.7583 9.91635 89.8001 9.87454C89.8419 9.83274 89.8586 9.74076 89.8586 9.59862V7.97655C89.8586 7.83441 89.8419 7.73407 89.8001 7.70063C89.7583 7.65882 89.6664 7.6421 89.5244 7.6421H83.4419C83.1161 7.6421 82.9573 7.4916 82.9573 7.18224V5.36785C82.9573 5.19227 82.9907 5.07521 83.0659 5.01668C83.1411 4.95816 83.2665 4.93307 83.4419 4.93307H91.563C91.9139 4.93307 92.2064 4.95816 92.4236 5.01668C92.6408 5.07521 92.8079 5.16719 92.9165 5.2926C93.0335 5.42638 93.1087 5.59361 93.1505 5.80264C93.1923 6.01167 93.209 6.27923 93.209 6.60531V10.8026C93.209 11.4799 93.0836 11.9314 92.833 12.1572C92.5823 12.3829 92.1646 12.5 91.5881 12.5H86.4999C86.291 12.5 86.1824 12.6087 86.1824 12.8177V14.7073C86.1824 14.9163 86.2993 15.025 86.5416 15.025C87.962 15.0585 89.3573 15.0167 90.7192 14.8996C92.081 14.7826 93.4095 14.6237 94.7045 14.4147C94.8633 14.3812 94.9719 14.3896 95.022 14.4398C95.0721 14.4899 95.1056 14.5735 95.139 14.7073L95.4064 16.4548C95.4398 16.6304 95.4231 16.7558 95.3729 16.8143C95.3144 16.8812 95.1975 16.923 95.022 16.9565M100.252 26.505H87.0513C86.3578 26.505 85.8983 26.3879 85.6811 26.1454C85.4638 25.903 85.3552 25.4431 85.3552 24.7658V20.0836C85.3552 19.7575 85.5223 19.5986 85.8649 19.5986H88.2377C88.5636 19.5986 88.7223 19.7575 88.7223 20.0836V23.3779C88.7223 23.6204 88.8476 23.7458 89.1066 23.7458H100.252C100.386 23.7458 100.495 23.7709 100.603 23.8294C100.703 23.8879 100.762 24.005 100.762 24.1806V26.0702C100.762 26.2959 100.712 26.4297 100.603 26.4548C100.495 26.4883 100.378 26.505 100.252 26.505ZM102.776 13.7959H99.7677V19.8327C99.7677 20.0083 99.7426 20.1337 99.6841 20.1923C99.6256 20.2592 99.5087 20.2926 99.3332 20.2926H96.8852C96.7097 20.2926 96.5844 20.2592 96.5092 20.1923C96.434 20.1254 96.4006 20.0083 96.4006 19.8327V4.09695C96.4006 3.78759 96.5593 3.63708 96.8852 3.63708H99.3332C99.6256 3.63708 99.7677 3.78759 99.7677 4.09695V11.0284H102.776C102.901 11.0284 103.018 11.0451 103.118 11.0786C103.218 11.112 103.26 11.2291 103.26 11.4381V13.3528C103.26 13.5284 103.218 13.6454 103.126 13.704C103.035 13.7625 102.918 13.7876 102.776 13.7876" fill="#FF7F00"/>
<path d="M116.871 20.2759C116.745 20.4347 116.595 20.4933 116.436 20.4431C116.277 20.3929 116.085 20.2926 115.876 20.1505C115.601 19.9582 115.283 19.699 114.915 19.3729C114.556 19.0468 114.172 18.6873 113.779 18.2943C113.386 17.9013 112.994 17.4749 112.601 17.0317C112.217 16.5886 111.866 16.1538 111.557 15.7357C110.73 16.7725 109.81 17.7508 108.791 18.6789C107.772 19.607 106.686 20.4431 105.516 21.1873C105.374 21.2876 105.257 21.3294 105.165 21.3127C105.073 21.2959 104.965 21.204 104.839 21.0451L103.703 19.515C103.578 19.3394 103.527 19.1973 103.569 19.0886C103.611 18.9883 103.703 18.8796 103.845 18.7876C104.781 18.1438 105.666 17.4247 106.51 16.6304C107.346 15.8361 108.123 15.0083 108.825 14.1304C109.526 13.2608 110.145 12.3578 110.679 11.4381C111.214 10.5184 111.624 9.59862 111.916 8.67889C112.016 8.3528 111.891 8.19394 111.548 8.19394H105.658C105.432 8.19394 105.299 8.15214 105.257 8.06016C105.215 7.96819 105.198 7.85113 105.198 7.68391V5.93642C105.198 5.74411 105.232 5.61033 105.307 5.53508C105.382 5.45983 105.508 5.42638 105.683 5.42638H113.679C114.305 5.42638 114.807 5.56016 115.166 5.83608C115.525 6.112 115.709 6.51334 115.709 7.04846C115.709 7.27421 115.692 7.4916 115.651 7.70063C115.609 7.90966 115.567 8.11033 115.517 8.311C115.325 9.10531 115.041 9.90799 114.665 10.7357C114.297 11.5635 113.846 12.3913 113.328 13.2357C113.637 13.7207 113.988 14.1889 114.381 14.6404C114.773 15.0919 115.183 15.5267 115.601 15.9364C116.018 16.3461 116.436 16.7307 116.862 17.0735C117.28 17.4247 117.664 17.7341 117.998 18.01C118.274 18.219 118.266 18.4949 117.973 18.8378L116.837 20.2675L116.871 20.2759ZM122.427 26.898H120.004C119.828 26.898 119.703 26.8729 119.644 26.8143C119.578 26.7558 119.544 26.6304 119.544 26.4381V4.09695C119.544 3.92137 119.578 3.79595 119.644 3.73742C119.711 3.67053 119.828 3.63708 120.004 3.63708H122.427C122.602 3.63708 122.727 3.67053 122.794 3.73742C122.861 3.80431 122.886 3.92137 122.886 4.09695V26.4297C122.886 26.622 122.853 26.7475 122.794 26.806C122.727 26.8645 122.61 26.8896 122.427 26.8896" fill="#FF7F00"/>
<path d="M146.748 22.8177H125.936C125.727 22.8177 125.593 22.7676 125.535 22.6756C125.476 22.5753 125.451 22.4582 125.451 22.3077V20.5602C125.451 20.3846 125.476 20.2508 125.535 20.1756C125.593 20.092 125.727 20.0585 125.936 20.0585H130.665V13.5619C130.665 13.3863 130.698 13.2609 130.765 13.194C130.832 13.1271 130.957 13.102 131.149 13.102H133.547C133.739 13.102 133.873 13.1355 133.931 13.194C133.998 13.2609 134.032 13.3779 134.032 13.5619V20.0585H135.97V13.5619C135.97 13.3863 136.004 13.2609 136.07 13.194C136.137 13.1271 136.263 13.102 136.455 13.102H138.828C139.036 13.102 139.178 13.1355 139.237 13.194C139.304 13.2609 139.337 13.3779 139.337 13.5619V20.0585H146.748C147.091 20.0585 147.258 20.2258 147.258 20.5686V22.3161C147.258 22.6589 147.091 22.8261 146.748 22.8261M143.991 16.9482C143.958 17.1906 143.899 17.3328 143.824 17.383C143.74 17.4331 143.582 17.4415 143.339 17.408L141.209 17.1906C140.95 17.1572 140.808 17.082 140.783 16.9649C140.758 16.8478 140.766 16.7057 140.791 16.5385C140.9 15.9532 141 15.3261 141.083 14.6572C141.167 13.9883 141.225 13.311 141.276 12.6171C141.326 11.9314 141.359 11.2458 141.376 10.5518C141.393 9.86623 141.401 9.2057 141.401 8.57861C141.401 8.33613 141.367 8.16055 141.292 8.06021C141.217 7.95988 141 7.90135 140.624 7.90135H128.877C128.718 7.90135 128.584 7.88463 128.492 7.84282C128.392 7.80101 128.35 7.6756 128.35 7.46657V5.55185C128.35 5.37626 128.4 5.25921 128.492 5.20904C128.593 5.15887 128.718 5.13379 128.877 5.13379H143.047C143.632 5.13379 144.058 5.26757 144.342 5.53513C144.626 5.80269 144.768 6.27927 144.768 6.95653C144.768 9.08864 144.693 10.995 144.551 12.6672C144.409 14.3395 144.217 15.7692 143.991 16.9482Z" fill="#FF7F00"/>
<path d="M162.882 26.1204H160.626C160.45 26.1204 160.325 26.0953 160.267 26.0451C160.2 25.9949 160.166 25.8695 160.166 25.6605V14.4314H158.42C158.303 15.3177 158.103 16.1538 157.802 16.9314C157.501 17.709 157.125 18.3779 156.674 18.9464C156.223 19.515 155.705 19.9582 155.112 20.2926C154.518 20.6271 153.883 20.7859 153.182 20.7859C152.388 20.7859 151.678 20.5852 151.034 20.1923C150.399 19.7993 149.856 19.2475 149.413 18.5535C148.971 17.8595 148.628 17.0317 148.394 16.0786C148.16 15.1254 148.043 14.097 148.043 13.0016C148.043 11.7725 148.169 10.6772 148.419 9.71568C148.67 8.75414 149.029 7.9431 149.489 7.28257C149.948 6.62203 150.491 6.112 151.11 5.75247C151.736 5.39294 152.421 5.21735 153.182 5.21735C153.875 5.21735 154.527 5.36785 155.137 5.65214C155.738 5.94478 156.281 6.3712 156.749 6.92304C157.217 7.48324 157.601 8.1605 157.902 8.96317C158.203 9.76585 158.403 10.6689 158.495 11.6889H160.166V4.51501C160.166 4.33943 160.2 4.21401 160.267 4.15548C160.334 4.08859 160.45 4.05515 160.626 4.05515H162.882C163.191 4.05515 163.341 4.20565 163.341 4.51501V25.6605C163.341 25.8528 163.308 25.9782 163.241 26.0367C163.174 26.0953 163.057 26.1204 162.873 26.1204M153.215 8.07688C152.831 8.07688 152.505 8.22739 152.246 8.53675C151.987 8.84611 151.778 9.23909 151.628 9.72404C151.477 10.209 151.36 10.7441 151.285 11.321C151.21 11.9063 151.176 12.4665 151.176 13.0184C151.176 13.5702 151.21 14.1053 151.285 14.6906C151.36 15.2759 151.477 15.8026 151.636 16.2876C151.795 16.7725 152.004 17.1739 152.263 17.4832C152.522 17.801 152.831 17.9598 153.207 17.9598C153.549 17.9598 153.85 17.8177 154.117 17.5334C154.385 17.2491 154.61 16.8812 154.811 16.4214C155.003 15.9615 155.153 15.4264 155.245 14.8327C155.346 14.2391 155.387 13.6287 155.387 13.01C155.387 12.3662 155.337 11.7475 155.245 11.1538C155.145 10.5602 155.003 10.0418 154.819 9.5819C154.635 9.12203 154.401 8.75414 154.126 8.47822C153.85 8.2023 153.541 8.06852 153.207 8.06852M167.803 26.9147H165.405C165.23 26.9147 165.104 26.8812 165.046 26.8143C164.979 26.7474 164.945 26.6304 164.945 26.4464V4.09695C164.945 3.92137 164.979 3.79595 165.054 3.73742C165.129 3.67053 165.255 3.63708 165.43 3.63708H167.803C167.978 3.63708 168.104 3.67053 168.162 3.73742C168.229 3.80431 168.262 3.92137 168.262 4.09695V26.4548C168.262 26.6304 168.229 26.7558 168.162 26.8227C168.095 26.8896 167.978 26.923 167.803 26.923" fill="#FF7F00"/>
<path d="M191.088 22.7675H170.276C170.067 22.7675 169.933 22.7174 169.875 22.6254C169.816 22.5251 169.791 22.408 169.791 22.2659V20.5184C169.791 20.3428 169.816 20.209 169.875 20.1337C169.933 20.0501 170.067 20.0083 170.276 20.0083H191.088C191.431 20.0083 191.598 20.1756 191.598 20.5184V22.2659C191.598 22.6087 191.431 22.7759 191.088 22.7759M172.841 16.4632C172.615 16.5468 172.465 16.5719 172.381 16.5384C172.298 16.505 172.214 16.413 172.114 16.2458L171.17 14.5485C170.961 14.1806 171.003 13.9381 171.287 13.821C172.465 13.3863 173.501 12.8846 174.403 12.316C175.297 11.7475 176.066 11.112 176.693 10.4013C177.319 9.6906 177.821 8.89629 178.18 8.02672C178.539 7.15716 178.781 6.1789 178.898 5.09194C178.932 4.91636 178.982 4.78258 179.04 4.70732C179.107 4.62371 179.249 4.59863 179.475 4.60699L181.773 4.74913C182.065 4.78258 182.24 4.83274 182.291 4.90799C182.349 4.98324 182.357 5.13375 182.324 5.3595C182.291 5.811 182.24 6.23743 182.182 6.64712C182.408 7.45816 182.767 8.21067 183.26 8.90465C183.753 9.59863 184.338 10.2341 185.014 10.7943C185.691 11.3628 186.435 11.8562 187.245 12.2826C188.056 12.709 188.891 13.0518 189.768 13.311C189.977 13.3779 190.094 13.4531 190.111 13.5535C190.128 13.6538 190.086 13.7876 189.994 13.9632L189.125 15.7608C189.058 15.8612 189.025 15.9281 189 15.9782C188.966 16.0451 188.933 16.0786 188.899 16.0786C188.833 16.1287 188.707 16.1287 188.515 16.0786C187.805 15.9197 187.078 15.6605 186.343 15.3177C185.607 14.9665 184.897 14.5652 184.195 14.097C183.502 13.6287 182.859 13.0936 182.257 12.5C181.656 11.9063 181.146 11.2625 180.703 10.5853C179.868 11.9565 178.756 13.1438 177.386 14.1388C176.016 15.1337 174.495 15.9113 172.833 16.4799" fill="#FF7F00"/>
<path d="M197.63 16.8311C196.837 16.8311 196.11 16.6889 195.441 16.3963C194.773 16.1036 194.197 15.7023 193.712 15.1839C193.227 14.6655 192.851 14.0384 192.576 13.3026C192.3 12.5668 192.166 11.7558 192.166 10.8695C192.166 9.98324 192.3 9.22237 192.576 8.50331C192.851 7.78424 193.227 7.16551 193.712 6.63876C194.197 6.112 194.773 5.7023 195.441 5.41802C196.11 5.12538 196.845 4.98324 197.63 4.98324C198.416 4.98324 199.159 5.12538 199.836 5.41802C200.513 5.71066 201.098 6.12036 201.582 6.63876C202.067 7.16551 202.443 7.78424 202.719 8.50331C202.994 9.22237 203.128 10.0083 203.128 10.8695C203.128 11.7307 202.994 12.5752 202.719 13.3026C202.443 14.0384 202.067 14.6655 201.582 15.1839C201.098 15.7023 200.513 16.1036 199.836 16.3963C199.159 16.6889 198.424 16.8311 197.63 16.8311ZM197.63 7.83441C196.987 7.83441 196.444 8.11869 196.01 8.68725C195.575 9.25581 195.358 9.9916 195.358 10.8946C195.358 11.7976 195.575 12.5836 196.01 13.1605C196.444 13.7374 196.987 14.0217 197.63 14.0217C198.307 14.0217 198.859 13.7374 199.276 13.1605C199.694 12.5836 199.903 11.8311 199.903 10.8946C199.903 10.0083 199.694 9.27254 199.276 8.70397C198.859 8.12705 198.307 7.84277 197.63 7.84277M212.703 26.505H198.75C198.407 26.505 198.132 26.4715 197.915 26.4214C197.697 26.3628 197.53 26.2709 197.405 26.1454C197.28 26.02 197.196 25.8361 197.154 25.6103C197.104 25.3846 197.079 25.1003 197.079 24.7575V19.3478C197.079 19.005 197.238 18.8378 197.564 18.8378H199.962C200.287 18.8378 200.446 19.005 200.446 19.3478V23.3695C200.446 23.612 200.571 23.7374 200.83 23.7374H212.703C212.828 23.7374 212.945 23.7625 213.046 23.821C213.146 23.8796 213.188 23.9966 213.188 24.1722V26.0618C213.188 26.2876 213.137 26.413 213.046 26.4464C212.945 26.4799 212.837 26.4966 212.703 26.4966M212.143 19.7658H209.745C209.57 19.7658 209.445 19.7324 209.386 19.6655C209.319 19.5986 209.286 19.4816 209.286 19.306V13.0016H207.54V18.7959C207.54 18.9715 207.506 19.0886 207.439 19.1471C207.372 19.2056 207.255 19.2307 207.08 19.2307H204.799C204.624 19.2307 204.498 19.2056 204.423 19.1471C204.348 19.0886 204.315 18.9715 204.315 18.7959V4.51501C204.315 4.3227 204.348 4.18892 204.423 4.1304C204.498 4.06351 204.624 4.03006 204.799 4.03006H207.08C207.389 4.03006 207.54 4.18892 207.54 4.51501V10.2592H209.286V4.09695C209.286 3.78759 209.445 3.63708 209.77 3.63708H212.143C212.319 3.63708 212.444 3.67053 212.511 3.73742C212.578 3.80431 212.611 3.92137 212.611 4.09695V19.2976C212.611 19.4732 212.578 19.5986 212.511 19.6572C212.444 19.724 212.327 19.7575 212.143 19.7575" fill="#FF7F00"/>
<path d="M221.476 21.9481C221.284 22.1739 221.125 22.2826 221.016 22.2658C220.899 22.2491 220.766 22.1739 220.607 22.0485L219.128 20.8612C218.953 20.719 218.869 20.602 218.877 20.51C218.877 20.418 218.969 20.2759 219.128 20.0585C219.679 19.3478 220.189 18.5535 220.657 17.6839C220.381 17.3913 220.114 17.0652 219.847 16.7056C219.579 16.3378 219.337 15.9615 219.111 15.5769C218.401 17.1655 217.474 18.6454 216.329 20.0418C216.17 20.2341 216.037 20.326 215.928 20.3177C215.819 20.3177 215.702 20.2508 215.577 20.1337L214.098 18.9464C213.965 18.8378 213.898 18.7291 213.881 18.6454C213.864 18.5535 213.923 18.4281 214.048 18.2692C214.775 17.3829 215.385 16.4632 215.87 15.5184C216.354 14.5735 216.738 13.5786 217.023 12.5334C217.307 11.4883 217.507 10.3762 217.632 9.19729C217.749 8.01836 217.816 6.73073 217.816 5.34277C217.816 4.96652 217.992 4.78257 218.351 4.78257L220.339 4.83274C220.707 4.86618 220.899 5.04177 220.899 5.36785C220.899 7.63374 220.732 9.66551 220.39 11.4799C220.582 12.0735 220.824 12.6421 221.108 13.1689C221.392 13.6956 221.693 14.1722 222.019 14.6153C222.988 11.8812 223.473 8.79595 223.473 5.35113C223.473 5.17555 223.523 5.03341 223.615 4.92471C223.715 4.82438 223.857 4.77421 224.049 4.79093L225.988 4.89127C226.338 4.92471 226.522 5.09193 226.522 5.4013C226.522 7.68391 226.33 9.82438 225.937 11.8311C226.096 12.5418 226.322 13.2107 226.606 13.8294C226.89 14.4565 227.199 15.0334 227.525 15.5602C227.859 16.0953 228.202 16.5719 228.552 16.9983C228.903 17.4247 229.229 17.801 229.522 18.1271C229.714 18.3361 229.814 18.4866 229.822 18.5618C229.822 18.6454 229.747 18.7709 229.572 18.9464L228.335 20.2341C228.143 20.4431 227.976 20.5267 227.826 20.4765C227.684 20.4264 227.466 20.2675 227.199 19.9916C226.748 19.5735 226.297 19.0217 225.854 18.3444C225.411 17.6672 225.018 17.0066 224.676 16.3545C223.865 18.4866 222.813 20.3511 221.501 21.9565M233.54 26.898H231.243C231.067 26.898 230.942 26.8729 230.875 26.8143C230.808 26.7558 230.775 26.6304 230.775 26.4381V4.09695C230.775 3.92137 230.808 3.79595 230.875 3.73742C230.942 3.67053 231.059 3.63708 231.243 3.63708H233.54C233.716 3.63708 233.841 3.67053 233.9 3.73742C233.967 3.80431 234 3.92137 234 4.09695V26.4297C234 26.622 233.967 26.7475 233.9 26.806C233.833 26.8645 233.716 26.8896 233.54 26.8896" fill="#FF7F00"/>
</g>
<defs>
<clipPath id="clip0_1288_7371">
<rect width="234" height="30" fill="white"/>
</clipPath>
</defs>
</svg>
